<svg xmlns="http://www.w3.org/2000/svg" viewBox="0 0 400 760" preserveAspectRatio="none" aria-hidden="true">
  <!-- Decorative hand-drawn-style scalloped frame. Pure outline (fill="none") so it
       can be layered on top of any background color/photo. Stroke color matches the
       muted gold/olive tone used across the invitation for headings and dividers. -->
  <path d="M 16.00,16.00 C 15.85,14.85 18.01,13.03 19.01,12.11 C 20.01,11.19 21.02,10.50 22.02,10.50 C 23.03,10.50 24.03,11.19 25.03,12.11 C 26.04,13.03 27.04,14.70 28.04,16.00 C 29.05,17.30 30.05,18.97 31.05,19.89 C 32.06,20.81 33.06,21.50 34.07,21.50 C 35.07,21.50 36.07,20.81 37.08,19.89 C 38.08,18.97 39.08,17.30 40.09,16.00 C 41.09,14.70 42.10,13.03 43.10,12.11 C 44.10,11.19 45.11,10.50 46.11,10.50 C 47.11,10.50 48.12,11.19 49.12,12.11 C 50.12,13.03 51.13,14.70 52.13,16.00 C 53.14,17.30 54.14,18.97 55.14,19.89 C 56.15,20.81 57.15,21.50 58.15,21.50 C 59.16,21.50 60.16,20.81 61.16,19.89 C 62.17,18.97 63.17,17.30 64.18,16.00 C 65.18,14.70 66.18,13.03 67.19,12.11 C 68.19,11.19 69.19,10.50 70.20,10.50 C 71.20,10.50 72.21,11.19 73.21,12.11 C 74.21,13.03 75.22,14.70 76.22,16.00 C 77.22,17.30 78.23,18.97 79.23,19.89 C 80.23,20.81 81.24,21.50 82.24,21.50 C 83.25,21.50 84.25,20.81 85.25,19.89 C 86.26,18.97 87.26,17.30 88.26,16.00 C 89.27,14.70 90.27,13.03 91.27,12.11 C 92.28,11.19 93.28,10.50 94.29,10.50 C 95.29,10.50 96.29,11.19 97.30,12.11 C 98.30,13.03 99.30,14.70 100.31,16.00 C 101.31,17.30 102.32,18.97 103.32,19.89 C 104.32,20.81 105.33,21.50 106.33,21.50 C 107.33,21.50 108.34,20.81 109.34,19.89 C 110.34,18.97 111.35,17.30 112.35,16.00 C 113.36,14.70 114.36,13.03 115.36,12.11 C 116.37,11.19 117.37,10.50 118.37,10.50 C 119.38,10.50 120.38,11.19 121.38,12.11 C 122.39,13.03 123.39,14.70 124.40,16.00 C 125.40,17.30 126.40,18.97 127.41,19.89 C 128.41,20.81 129.41,21.50 130.42,21.50 C 131.42,21.50 132.42,20.81 133.43,19.89 C 134.43,18.97 135.44,17.30 136.44,16.00 C 137.44,14.70 138.45,13.03 139.45,12.11 C 140.45,11.19 141.46,10.50 142.46,10.50 C 143.47,10.50 144.47,11.19 145.47,12.11 C 146.48,13.03 147.48,14.70 148.48,16.00 C 149.49,17.30 150.49,18.97 151.49,19.89 C 152.50,20.81 153.50,21.50 154.51,21.50 C 155.51,21.50 156.51,20.81 157.52,19.89 C 158.52,18.97 159.52,17.30 160.53,16.00 C 161.53,14.70 162.53,13.03 163.54,12.11 C 164.54,11.19 165.55,10.50 166.55,10.50 C 167.55,10.50 168.56,11.19 169.56,12.11 C 170.56,13.03 171.57,14.70 172.57,16.00 C 173.58,17.30 174.58,18.97 175.58,19.89 C 176.59,20.81 177.59,21.50 178.59,21.50 C 179.60,21.50 180.60,20.81 181.60,19.89 C 182.61,18.97 183.61,17.30 184.62,16.00 C 185.62,14.70 186.62,13.03 187.63,12.11 C 188.63,11.19 189.63,10.50 190.64,10.50 C 191.64,10.50 192.64,11.19 193.65,12.11 C 194.65,13.03 195.66,14.70 196.66,16.00 C 197.66,17.30 198.67,18.97 199.67,19.89 C 200.67,20.81 201.68,21.50 202.68,21.50 C 203.68,21.50 204.69,20.81 205.69,19.89 C 206.70,18.97 207.70,17.30 208.70,16.00 C 209.71,14.70 210.71,13.03 211.71,12.11 C 212.72,11.19 213.72,10.50 214.73,10.50 C 215.73,10.50 216.73,11.19 217.74,12.11 C 218.74,13.03 219.74,14.70 220.75,16.00 C 221.75,17.30 222.75,18.97 223.76,19.89 C 224.76,20.81 225.77,21.50 226.77,21.50 C 227.77,21.50 228.78,20.81 229.78,19.89 C 230.78,18.97 231.79,17.30 232.79,16.00 C 233.79,14.70 234.80,13.03 235.80,12.11 C 236.81,11.19 237.81,10.50 238.81,10.50 C 239.82,10.50 240.82,11.19 241.82,12.11 C 242.83,13.03 243.83,14.70 244.84,16.00 C 245.84,17.30 246.84,18.97 247.85,19.89 C 248.85,20.81 249.85,21.50 250.86,21.50 C 251.86,21.50 252.86,20.81 253.87,19.89 C 254.87,18.97 255.88,17.30 256.88,16.00 C 257.88,14.70 258.89,13.03 259.89,12.11 C 260.89,11.19 261.90,10.50 262.90,10.50 C 263.90,10.50 264.91,11.19 265.91,12.11 C 266.92,13.03 267.92,14.70 268.92,16.00 C 269.93,17.30 270.93,18.97 271.93,19.89 C 272.94,20.81 273.94,21.50 274.95,21.50 C 275.95,21.50 276.95,20.81 277.96,19.89 C 278.96,18.97 279.96,17.30 280.97,16.00 C 281.97,14.70 282.97,13.03 283.98,12.11 C 284.98,11.19 285.99,10.50 286.99,10.50 C 287.99,10.50 289.00,11.19 290.00,12.11 C 291.00,13.03 292.01,14.70 293.01,16.00 C 294.01,17.30 295.02,18.97 296.02,19.89 C 297.03,20.81 298.03,21.50 299.03,21.50 C 300.04,21.50 301.04,20.81 302.04,19.89 C 303.05,18.97 304.05,17.30 305.05,16.00 C 306.06,14.70 307.06,13.03 308.07,12.11 C 309.07,11.19 310.07,10.50 311.08,10.50 C 312.08,10.50 313.08,11.19 314.09,12.11 C 315.09,13.03 316.10,14.70 317.10,16.00 C 318.10,17.30 319.11,18.97 320.11,19.89 C 321.11,20.81 322.12,21.50 323.12,21.50 C 324.12,21.50 325.13,20.81 326.13,19.89 C 327.14,18.97 328.14,17.30 329.14,16.00 C 330.15,14.70 331.15,13.03 332.15,12.11 C 333.16,11.19 334.16,10.50 335.16,10.50 C 336.17,10.50 337.17,11.19 338.18,12.11 C 339.18,13.03 340.18,14.70 341.19,16.00 C 342.19,17.30 343.19,18.97 344.20,19.89 C 345.20,20.81 346.21,21.50 347.21,21.50 C 348.21,21.50 349.22,20.81 350.22,19.89 C 351.22,18.97 352.23,17.30 353.23,16.00 C 354.23,14.70 355.24,13.03 356.24,12.11 C 357.25,11.19 358.25,10.50 359.25,10.50 C 360.26,10.50 361.26,11.19 362.26,12.11 C 363.27,13.03 364.27,14.70 365.27,16.00 C 366.28,17.30 367.28,18.97 368.29,19.89 C 369.29,20.81 370.29,21.50 371.30,21.50 C 372.30,21.50 373.30,20.81 374.31,19.89 C 375.31,18.97 376.32,17.30 377.32,16.00 C 378.32,14.70 379.33,13.03 380.33,12.11 C 381.33,11.19 382.08,9.46 383.34,10.50 C 384.60,11.54 387.78,16.54 387.89,18.35 C 388.00,20.16 385.30,20.36 384.00,21.36 C 382.70,22.37 381.03,23.37 380.11,24.37 C 379.19,25.38 378.50,26.38 378.50,27.38 C 378.50,28.39 379.19,29.39 380.11,30.40 C 381.03,31.40 382.70,32.40 384.00,33.41 C 385.30,34.41 386.97,35.41 387.89,36.42 C 388.81,37.42 389.50,38.42 389.50,39.43 C 389.50,40.43 388.81,41.44 387.89,42.44 C 386.97,43.44 385.30,44.45 384.00,45.45 C 382.70,46.45 381.03,47.46 380.11,48.46 C 379.19,49.47 378.50,50.47 378.50,51.47 C 378.50,52.48 379.19,53.48 380.11,54.48 C 381.03,55.49 382.70,56.49 384.00,57.49 C 385.30,58.50 386.97,59.50 387.89,60.51 C 388.81,61.51 389.50,62.51 389.50,63.52 C 389.50,64.52 388.81,65.52 387.89,66.53 C 386.97,67.53 385.30,68.53 384.00,69.54 C 382.70,70.54 381.03,71.55 380.11,72.55 C 379.19,73.55 378.50,74.56 378.50,75.56 C 378.50,76.56 379.19,77.57 380.11,78.57 C 381.03,79.58 382.70,80.58 384.00,81.58 C 385.30,82.59 386.97,83.59 387.89,84.59 C 388.81,85.60 389.50,86.60 389.50,87.60 C 389.50,88.61 388.81,89.61 387.89,90.62 C 386.97,91.62 385.30,92.62 384.00,93.63 C 382.70,94.63 381.03,95.63 380.11,96.64 C 379.19,97.64 378.50,98.64 378.50,99.65 C 378.50,100.65 379.19,101.66 380.11,102.66 C 381.03,103.66 382.70,104.67 384.00,105.67 C 385.30,106.67 386.97,107.68 387.89,108.68 C 388.81,109.68 389.50,110.69 389.50,111.69 C 389.50,112.70 388.81,113.70 387.89,114.70 C 386.97,115.71 385.30,116.71 384.00,117.71 C 382.70,118.72 381.03,119.72 380.11,120.73 C 379.19,121.73 378.50,122.73 378.50,123.74 C 378.50,124.74 379.19,125.74 380.11,126.75 C 381.03,127.75 382.70,128.75 384.00,129.76 C 385.30,130.76 386.97,131.77 387.89,132.77 C 388.81,133.77 389.50,134.78 389.50,135.78 C 389.50,136.78 388.81,137.79 387.89,138.79 C 386.97,139.79 385.30,140.80 384.00,141.80 C 382.70,142.81 381.03,143.81 380.11,144.81 C 379.19,145.82 378.50,146.82 378.50,147.82 C 378.50,148.83 379.19,149.83 380.11,150.84 C 381.03,151.84 382.70,152.84 384.00,153.85 C 385.30,154.85 386.97,155.85 387.89,156.86 C 388.81,157.86 389.50,158.86 389.50,159.87 C 389.50,160.87 388.81,161.88 387.89,162.88 C 386.97,163.88 385.30,164.89 384.00,165.89 C 382.70,166.89 381.03,167.90 380.11,168.90 C 379.19,169.90 378.50,170.91 378.50,171.91 C 378.50,172.92 379.19,173.92 380.11,174.92 C 381.03,175.93 382.70,176.93 384.00,177.93 C 385.30,178.94 386.97,179.94 387.89,180.95 C 388.81,181.95 389.50,182.95 389.50,183.96 C 389.50,184.96 388.81,185.96 387.89,186.97 C 386.97,187.97 385.30,188.97 384.00,189.98 C 382.70,190.98 381.03,191.99 380.11,192.99 C 379.19,193.99 378.50,195.00 378.50,196.00 C 378.50,197.00 379.19,198.01 380.11,199.01 C 381.03,200.01 382.70,201.02 384.00,202.02 C 385.30,203.03 386.97,204.03 387.89,205.03 C 388.81,206.04 389.50,207.04 389.50,208.04 C 389.50,209.05 388.81,210.05 387.89,211.05 C 386.97,212.06 385.30,213.06 384.00,214.07 C 382.70,215.07 381.03,216.07 380.11,217.08 C 379.19,218.08 378.50,219.08 378.50,220.09 C 378.50,221.09 379.19,222.10 380.11,223.10 C 381.03,224.10 382.70,225.11 384.00,226.11 C 385.30,227.11 386.97,228.12 387.89,229.12 C 388.81,230.12 389.50,231.13 389.50,232.13 C 389.50,233.14 388.81,234.14 387.89,235.14 C 386.97,236.15 385.30,237.15 384.00,238.15 C 382.70,239.16 381.03,240.16 380.11,241.16 C 379.19,242.17 378.50,243.17 378.50,244.18 C 378.50,245.18 379.19,246.18 380.11,247.19 C 381.03,248.19 382.70,249.19 384.00,250.20 C 385.30,251.20 386.97,252.21 387.89,253.21 C 388.81,254.21 389.50,255.22 389.50,256.22 C 389.50,257.22 388.81,258.23 387.89,259.23 C 386.97,260.23 385.30,261.24 384.00,262.24 C 382.70,263.25 381.03,264.25 380.11,265.25 C 379.19,266.26 378.50,267.26 378.50,268.26 C 378.50,269.27 379.19,270.27 380.11,271.27 C 381.03,272.28 382.70,273.28 384.00,274.29 C 385.30,275.29 386.97,276.29 387.89,277.30 C 388.81,278.30 389.50,279.30 389.50,280.31 C 389.50,281.31 388.81,282.32 387.89,283.32 C 386.97,284.32 385.30,285.33 384.00,286.33 C 382.70,287.33 381.03,288.34 380.11,289.34 C 379.19,290.34 378.50,291.35 378.50,292.35 C 378.50,293.36 379.19,294.36 380.11,295.36 C 381.03,296.37 382.70,297.37 384.00,298.37 C 385.30,299.38 386.97,300.38 387.89,301.38 C 388.81,302.39 389.50,303.39 389.50,304.40 C 389.50,305.40 388.81,306.40 387.89,307.41 C 386.97,308.41 385.30,309.41 384.00,310.42 C 382.70,311.42 381.03,312.42 380.11,313.43 C 379.19,314.43 378.50,315.44 378.50,316.44 C 378.50,317.44 379.19,318.45 380.11,319.45 C 381.03,320.45 382.70,321.46 384.00,322.46 C 385.30,323.47 386.97,324.47 387.89,325.47 C 388.81,326.48 389.50,327.48 389.50,328.48 C 389.50,329.49 388.81,330.49 387.89,331.49 C 386.97,332.50 385.30,333.50 384.00,334.51 C 382.70,335.51 381.03,336.51 380.11,337.52 C 379.19,338.52 378.50,339.52 378.50,340.53 C 378.50,341.53 379.19,342.53 380.11,343.54 C 381.03,344.54 382.70,345.55 384.00,346.55 C 385.30,347.55 386.97,348.56 387.89,349.56 C 388.81,350.56 389.50,351.57 389.50,352.57 C 389.50,353.58 388.81,354.58 387.89,355.58 C 386.97,356.59 385.30,357.59 384.00,358.59 C 382.70,359.60 381.03,360.60 380.11,361.60 C 379.19,362.61 378.50,363.61 378.50,364.62 C 378.50,365.62 379.19,366.62 380.11,367.63 C 381.03,368.63 382.70,369.63 384.00,370.64 C 385.30,371.64 386.97,372.64 387.89,373.65 C 388.81,374.65 389.50,375.66 389.50,376.66 C 389.50,377.66 388.81,378.67 387.89,379.67 C 386.97,380.67 385.30,381.68 384.00,382.68 C 382.70,383.68 381.03,384.69 380.11,385.69 C 379.19,386.70 378.50,387.70 378.50,388.70 C 378.50,389.71 379.19,390.71 380.11,391.71 C 381.03,392.72 382.70,393.72 384.00,394.73 C 385.30,395.73 386.97,396.73 387.89,397.74 C 388.81,398.74 389.50,399.74 389.50,400.75 C 389.50,401.75 388.81,402.75 387.89,403.76 C 386.97,404.76 385.30,405.77 384.00,406.77 C 382.70,407.77 381.03,408.78 380.11,409.78 C 379.19,410.78 378.50,411.79 378.50,412.79 C 378.50,413.79 379.19,414.80 380.11,415.80 C 381.03,416.81 382.70,417.81 384.00,418.81 C 385.30,419.82 386.97,420.82 387.89,421.82 C 388.81,422.83 389.50,423.83 389.50,424.84 C 389.50,425.84 388.81,426.84 387.89,427.85 C 386.97,428.85 385.30,429.85 384.00,430.86 C 382.70,431.86 381.03,432.86 380.11,433.87 C 379.19,434.87 378.50,435.88 378.50,436.88 C 378.50,437.88 379.19,438.89 380.11,439.89 C 381.03,440.89 382.70,441.90 384.00,442.90 C 385.30,443.90 386.97,444.91 387.89,445.91 C 388.81,446.92 389.50,447.92 389.50,448.92 C 389.50,449.93 388.81,450.93 387.89,451.93 C 386.97,452.94 385.30,453.94 384.00,454.95 C 382.70,455.95 381.03,456.95 380.11,457.96 C 379.19,458.96 378.50,459.96 378.50,460.97 C 378.50,461.97 379.19,462.97 380.11,463.98 C 381.03,464.98 382.70,465.99 384.00,466.99 C 385.30,467.99 386.97,469.00 387.89,470.00 C 388.81,471.00 389.50,472.01 389.50,473.01 C 389.50,474.01 388.81,475.02 387.89,476.02 C 386.97,477.03 385.30,478.03 384.00,479.03 C 382.70,480.04 381.03,481.04 380.11,482.04 C 379.19,483.05 378.50,484.05 378.50,485.05 C 378.50,486.06 379.19,487.06 380.11,488.07 C 381.03,489.07 382.70,490.07 384.00,491.08 C 385.30,492.08 386.97,493.08 387.89,494.09 C 388.81,495.09 389.50,496.10 389.50,497.10 C 389.50,498.10 388.81,499.11 387.89,500.11 C 386.97,501.11 385.30,502.12 384.00,503.12 C 382.70,504.12 381.03,505.13 380.11,506.13 C 379.19,507.14 378.50,508.14 378.50,509.14 C 378.50,510.15 379.19,511.15 380.11,512.15 C 381.03,513.16 382.70,514.16 384.00,515.16 C 385.30,516.17 386.97,517.17 387.89,518.18 C 388.81,519.18 389.50,520.18 389.50,521.19 C 389.50,522.19 388.81,523.19 387.89,524.20 C 386.97,525.20 385.30,526.21 384.00,527.21 C 382.70,528.21 381.03,529.22 380.11,530.22 C 379.19,531.22 378.50,532.23 378.50,533.23 C 378.50,534.23 379.19,535.24 380.11,536.24 C 381.03,537.25 382.70,538.25 384.00,539.25 C 385.30,540.26 386.97,541.26 387.89,542.26 C 388.81,543.27 389.50,544.27 389.50,545.27 C 389.50,546.28 388.81,547.28 387.89,548.29 C 386.97,549.29 385.30,550.29 384.00,551.30 C 382.70,552.30 381.03,553.30 380.11,554.31 C 379.19,555.31 378.50,556.32 378.50,557.32 C 378.50,558.32 379.19,559.33 380.11,560.33 C 381.03,561.33 382.70,562.34 384.00,563.34 C 385.30,564.34 386.97,565.35 387.89,566.35 C 388.81,567.36 389.50,568.36 389.50,569.36 C 389.50,570.37 388.81,571.37 387.89,572.37 C 386.97,573.38 385.30,574.38 384.00,575.38 C 382.70,576.39 381.03,577.39 380.11,578.40 C 379.19,579.40 378.50,580.40 378.50,581.41 C 378.50,582.41 379.19,583.41 380.11,584.42 C 381.03,585.42 382.70,586.42 384.00,587.43 C 385.30,588.43 386.97,589.44 387.89,590.44 C 388.81,591.44 389.50,592.45 389.50,593.45 C 389.50,594.45 388.81,595.46 387.89,596.46 C 386.97,597.47 385.30,598.47 384.00,599.47 C 382.70,600.48 381.03,601.48 380.11,602.48 C 379.19,603.49 378.50,604.49 378.50,605.49 C 378.50,606.50 379.19,607.50 380.11,608.51 C 381.03,609.51 382.70,610.51 384.00,611.52 C 385.30,612.52 386.97,613.52 387.89,614.53 C 388.81,615.53 389.50,616.53 389.50,617.54 C 389.50,618.54 388.81,619.55 387.89,620.55 C 386.97,621.55 385.30,622.56 384.00,623.56 C 382.70,624.56 381.03,625.57 380.11,626.57 C 379.19,627.58 378.50,628.58 378.50,629.58 C 378.50,630.59 379.19,631.59 380.11,632.59 C 381.03,633.60 382.70,634.60 384.00,635.60 C 385.30,636.61 386.97,637.61 387.89,638.62 C 388.81,639.62 389.50,640.62 389.50,641.63 C 389.50,642.63 388.81,643.63 387.89,644.64 C 386.97,645.64 385.30,646.64 384.00,647.65 C 382.70,648.65 381.03,649.66 380.11,650.66 C 379.19,651.66 378.50,652.67 378.50,653.67 C 378.50,654.67 379.19,655.68 380.11,656.68 C 381.03,657.68 382.70,658.69 384.00,659.69 C 385.30,660.70 386.97,661.70 387.89,662.70 C 388.81,663.71 389.50,664.71 389.50,665.71 C 389.50,666.72 388.81,667.72 387.89,668.73 C 386.97,669.73 385.30,670.73 384.00,671.74 C 382.70,672.74 381.03,673.74 380.11,674.75 C 379.19,675.75 378.50,676.75 378.50,677.76 C 378.50,678.76 379.19,679.77 380.11,680.77 C 381.03,681.77 382.70,682.78 384.00,683.78 C 385.30,684.78 386.97,685.79 387.89,686.79 C 388.81,687.79 389.50,688.80 389.50,689.80 C 389.50,690.81 388.81,691.81 387.89,692.81 C 386.97,693.82 385.30,694.82 384.00,695.82 C 382.70,696.83 381.03,697.83 380.11,698.84 C 379.19,699.84 378.50,700.84 378.50,701.85 C 378.50,702.85 379.19,703.85 380.11,704.86 C 381.03,705.86 382.70,706.86 384.00,707.87 C 385.30,708.87 386.97,709.88 387.89,710.88 C 388.81,711.88 389.50,712.89 389.50,713.89 C 389.50,714.89 388.81,715.90 387.89,716.90 C 386.97,717.90 385.30,718.91 384.00,719.91 C 382.70,720.92 381.03,721.92 380.11,722.92 C 379.19,723.93 378.50,724.93 378.50,725.93 C 378.50,726.94 379.19,727.94 380.11,728.95 C 381.03,729.95 382.70,730.95 384.00,731.96 C 385.30,732.96 386.97,733.96 387.89,734.97 C 388.81,735.97 389.50,736.97 389.50,737.98 C 389.50,738.98 388.81,739.99 387.89,740.99 C 386.97,741.99 385.15,744.15 384.00,744.00 C 382.85,743.85 381.99,741.03 380.99,740.11 C 379.99,739.19 378.98,738.50 377.98,738.50 C 376.97,738.50 375.97,739.19 374.97,740.11 C 373.96,741.03 372.96,742.70 371.96,744.00 C 370.95,745.30 369.95,746.97 368.95,747.89 C 367.94,748.81 366.94,749.50 365.93,749.50 C 364.93,749.50 363.93,748.81 362.92,747.89 C 361.92,746.97 360.92,745.30 359.91,744.00 C 358.91,742.70 357.90,741.03 356.90,740.11 C 355.90,739.19 354.89,738.50 353.89,738.50 C 352.89,738.50 351.88,739.19 350.88,740.11 C 349.88,741.03 348.87,742.70 347.87,744.00 C 346.86,745.30 345.86,746.97 344.86,747.89 C 343.85,748.81 342.85,749.50 341.85,749.50 C 340.84,749.50 339.84,748.81 338.84,747.89 C 337.83,746.97 336.83,745.30 335.82,744.00 C 334.82,742.70 333.82,741.03 332.81,740.11 C 331.81,739.19 330.81,738.50 329.80,738.50 C 328.80,738.50 327.79,739.19 326.79,740.11 C 325.79,741.03 324.78,742.70 323.78,744.00 C 322.78,745.30 321.77,746.97 320.77,747.89 C 319.77,748.81 318.76,749.50 317.76,749.50 C 316.75,749.50 315.75,748.81 314.75,747.89 C 313.74,746.97 312.74,745.30 311.74,744.00 C 310.73,742.70 309.73,741.03 308.73,740.11 C 307.72,739.19 306.72,738.50 305.71,738.50 C 304.71,738.50 303.71,739.19 302.70,740.11 C 301.70,741.03 300.70,742.70 299.69,744.00 C 298.69,745.30 297.68,746.97 296.68,747.89 C 295.68,748.81 294.67,749.50 293.67,749.50 C 292.67,749.50 291.66,748.81 290.66,747.89 C 289.66,746.97 288.65,745.30 287.65,744.00 C 286.64,742.70 285.64,741.03 284.64,740.11 C 283.63,739.19 282.63,738.50 281.63,738.50 C 280.62,738.50 279.62,739.19 278.62,740.11 C 277.61,741.03 276.61,742.70 275.60,744.00 C 274.60,745.30 273.60,746.97 272.59,747.89 C 271.59,748.81 270.59,749.50 269.58,749.50 C 268.58,749.50 267.58,748.81 266.57,747.89 C 265.57,746.97 264.56,745.30 263.56,744.00 C 262.56,742.70 261.55,741.03 260.55,740.11 C 259.55,739.19 258.54,738.50 257.54,738.50 C 256.53,738.50 255.53,739.19 254.53,740.11 C 253.52,741.03 252.52,742.70 251.52,744.00 C 250.51,745.30 249.51,746.97 248.51,747.89 C 247.50,748.81 246.50,749.50 245.49,749.50 C 244.49,749.50 243.49,748.81 242.48,747.89 C 241.48,746.97 240.48,745.30 239.47,744.00 C 238.47,742.70 237.47,741.03 236.46,740.11 C 235.46,739.19 234.45,738.50 233.45,738.50 C 232.45,738.50 231.44,739.19 230.44,740.11 C 229.44,741.03 228.43,742.70 227.43,744.00 C 226.42,745.30 225.42,746.97 224.42,747.89 C 223.41,748.81 222.41,749.50 221.41,749.50 C 220.40,749.50 219.40,748.81 218.40,747.89 C 217.39,746.97 216.39,745.30 215.38,744.00 C 214.38,742.70 213.38,741.03 212.37,740.11 C 211.37,739.19 210.37,738.50 209.36,738.50 C 208.36,738.50 207.36,739.19 206.35,740.11 C 205.35,741.03 204.34,742.70 203.34,744.00 C 202.34,745.30 201.33,746.97 200.33,747.89 C 199.33,748.81 198.32,749.50 197.32,749.50 C 196.32,749.50 195.31,748.81 194.31,747.89 C 193.30,746.97 192.30,745.30 191.30,744.00 C 190.29,742.70 189.29,741.03 188.29,740.11 C 187.28,739.19 186.28,738.50 185.27,738.50 C 184.27,738.50 183.27,739.19 182.26,740.11 C 181.26,741.03 180.26,742.70 179.25,744.00 C 178.25,745.30 177.25,746.97 176.24,747.89 C 175.24,748.81 174.23,749.50 173.23,749.50 C 172.23,749.50 171.22,748.81 170.22,747.89 C 169.22,746.97 168.21,745.30 167.21,744.00 C 166.21,742.70 165.20,741.03 164.20,740.11 C 163.19,739.19 162.19,738.50 161.19,738.50 C 160.18,738.50 159.18,739.19 158.18,740.11 C 157.17,741.03 156.17,742.70 155.16,744.00 C 154.16,745.30 153.16,746.97 152.15,747.89 C 151.15,748.81 150.15,749.50 149.14,749.50 C 148.14,749.50 147.14,748.81 146.13,747.89 C 145.13,746.97 144.12,745.30 143.12,744.00 C 142.12,742.70 141.11,741.03 140.11,740.11 C 139.11,739.19 138.10,738.50 137.10,738.50 C 136.10,738.50 135.09,739.19 134.09,740.11 C 133.08,741.03 132.08,742.70 131.08,744.00 C 130.07,745.30 129.07,746.97 128.07,747.89 C 127.06,748.81 126.06,749.50 125.05,749.50 C 124.05,749.50 123.05,748.81 122.04,747.89 C 121.04,746.97 120.04,745.30 119.03,744.00 C 118.03,742.70 117.03,741.03 116.02,740.11 C 115.02,739.19 114.01,738.50 113.01,738.50 C 112.01,738.50 111.00,739.19 110.00,740.11 C 109.00,741.03 107.99,742.70 106.99,744.00 C 105.99,745.30 104.98,746.97 103.98,747.89 C 102.97,748.81 101.97,749.50 100.97,749.50 C 99.96,749.50 98.96,748.81 97.96,747.89 C 96.95,746.97 95.95,745.30 94.95,744.00 C 93.94,742.70 92.94,741.03 91.93,740.11 C 90.93,739.19 89.93,738.50 88.92,738.50 C 87.92,738.50 86.92,739.19 85.91,740.11 C 84.91,741.03 83.90,742.70 82.90,744.00 C 81.90,745.30 80.89,746.97 79.89,747.89 C 78.89,748.81 77.88,749.50 76.88,749.50 C 75.88,749.50 74.87,748.81 73.87,747.89 C 72.86,746.97 71.86,745.30 70.86,744.00 C 69.85,742.70 68.85,741.03 67.85,740.11 C 66.84,739.19 65.84,738.50 64.84,738.50 C 63.83,738.50 62.83,739.19 61.82,740.11 C 60.82,741.03 59.82,742.70 58.81,744.00 C 57.81,745.30 56.81,746.97 55.80,747.89 C 54.80,748.81 53.79,749.50 52.79,749.50 C 51.79,749.50 50.78,748.81 49.78,747.89 C 48.78,746.97 47.77,745.30 46.77,744.00 C 45.77,742.70 44.76,741.03 43.76,740.11 C 42.75,739.19 41.75,738.50 40.75,738.50 C 39.74,738.50 38.74,739.19 37.74,740.11 C 36.73,741.03 35.73,742.70 34.73,744.00 C 33.72,745.30 32.72,746.97 31.71,747.89 C 30.71,748.81 29.71,749.50 28.70,749.50 C 27.70,749.50 26.70,748.81 25.69,747.89 C 24.69,746.97 23.68,745.30 22.68,744.00 C 21.68,742.70 20.67,741.03 19.67,740.11 C 18.67,739.19 16.62,738.24 16.66,738.50 C 16.70,738.76 20.00,741.63 19.89,741.65 C 19.78,741.67 17.30,739.64 16.00,738.64 C 14.70,737.63 13.03,736.63 12.11,735.63 C 11.19,734.62 10.50,733.62 10.50,732.62 C 10.50,731.61 11.19,730.61 12.11,729.60 C 13.03,728.60 14.70,727.60 16.00,726.59 C 17.30,725.59 18.97,724.59 19.89,723.58 C 20.81,722.58 21.50,721.58 21.50,720.57 C 21.50,719.57 20.81,718.56 19.89,717.56 C 18.97,716.56 17.30,715.55 16.00,714.55 C 14.70,713.55 13.03,712.54 12.11,711.54 C 11.19,710.53 10.50,709.53 10.50,708.53 C 10.50,707.52 11.19,706.52 12.11,705.52 C 13.03,704.51 14.70,703.51 16.00,702.51 C 17.30,701.50 18.97,700.50 19.89,699.49 C 20.81,698.49 21.50,697.49 21.50,696.48 C 21.50,695.48 20.81,694.48 19.89,693.47 C 18.97,692.47 17.30,691.47 16.00,690.46 C 14.70,689.46 13.03,688.45 12.11,687.45 C 11.19,686.45 10.50,685.44 10.50,684.44 C 10.50,683.44 11.19,682.43 12.11,681.43 C 13.03,680.42 14.70,679.42 16.00,678.42 C 17.30,677.41 18.97,676.41 19.89,675.41 C 20.81,674.40 21.50,673.40 21.50,672.40 C 21.50,671.39 20.81,670.39 19.89,669.38 C 18.97,668.38 17.30,667.38 16.00,666.37 C 14.70,665.37 13.03,664.37 12.11,663.36 C 11.19,662.36 10.50,661.36 10.50,660.35 C 10.50,659.35 11.19,658.34 12.11,657.34 C 13.03,656.34 14.70,655.33 16.00,654.33 C 17.30,653.33 18.97,652.32 19.89,651.32 C 20.81,650.32 21.50,649.31 21.50,648.31 C 21.50,647.30 20.81,646.30 19.89,645.30 C 18.97,644.29 17.30,643.29 16.00,642.29 C 14.70,641.28 13.03,640.28 12.11,639.27 C 11.19,638.27 10.50,637.27 10.50,636.26 C 10.50,635.26 11.19,634.26 12.11,633.25 C 13.03,632.25 14.70,631.25 16.00,630.24 C 17.30,629.24 18.97,628.23 19.89,627.23 C 20.81,626.23 21.50,625.22 21.50,624.22 C 21.50,623.22 20.81,622.21 19.89,621.21 C 18.97,620.21 17.30,619.20 16.00,618.20 C 14.70,617.19 13.03,616.19 12.11,615.19 C 11.19,614.18 10.50,613.18 10.50,612.18 C 10.50,611.17 11.19,610.17 12.11,609.16 C 13.03,608.16 14.70,607.16 16.00,606.15 C 17.30,605.15 18.97,604.15 19.89,603.14 C 20.81,602.14 21.50,601.14 21.50,600.13 C 21.50,599.13 20.81,598.12 19.89,597.12 C 18.97,596.12 17.30,595.11 16.00,594.11 C 14.70,593.11 13.03,592.10 12.11,591.10 C 11.19,590.10 10.50,589.09 10.50,588.09 C 10.50,587.08 11.19,586.08 12.11,585.08 C 13.03,584.07 14.70,583.07 16.00,582.07 C 17.30,581.06 18.97,580.06 19.89,579.05 C 20.81,578.05 21.50,577.05 21.50,576.04 C 21.50,575.04 20.81,574.04 19.89,573.03 C 18.97,572.03 17.30,571.03 16.00,570.02 C 14.70,569.02 13.03,568.01 12.11,567.01 C 11.19,566.01 10.50,565.00 10.50,564.00 C 10.50,563.00 11.19,561.99 12.11,560.99 C 13.03,559.99 14.70,558.98 16.00,557.98 C 17.30,556.97 18.97,555.97 19.89,554.97 C 20.81,553.96 21.50,552.96 21.50,551.96 C 21.50,550.95 20.81,549.95 19.89,548.95 C 18.97,547.94 17.30,546.94 16.00,545.93 C 14.70,544.93 13.03,543.93 12.11,542.92 C 11.19,541.92 10.50,540.92 10.50,539.91 C 10.50,538.91 11.19,537.90 12.11,536.90 C 13.03,535.90 14.70,534.89 16.00,533.89 C 17.30,532.89 18.97,531.88 19.89,530.88 C 20.81,529.88 21.50,528.87 21.50,527.87 C 21.50,526.86 20.81,525.86 19.89,524.86 C 18.97,523.85 17.30,522.85 16.00,521.85 C 14.70,520.84 13.03,519.84 12.11,518.84 C 11.19,517.83 10.50,516.83 10.50,515.82 C 10.50,514.82 11.19,513.82 12.11,512.81 C 13.03,511.81 14.70,510.81 16.00,509.80 C 17.30,508.80 18.97,507.79 19.89,506.79 C 20.81,505.79 21.50,504.78 21.50,503.78 C 21.50,502.78 20.81,501.77 19.89,500.77 C 18.97,499.77 17.30,498.76 16.00,497.76 C 14.70,496.75 13.03,495.75 12.11,494.75 C 11.19,493.74 10.50,492.74 10.50,491.74 C 10.50,490.73 11.19,489.73 12.11,488.73 C 13.03,487.72 14.70,486.72 16.00,485.71 C 17.30,484.71 18.97,483.71 19.89,482.70 C 20.81,481.70 21.50,480.70 21.50,479.69 C 21.50,478.69 20.81,477.68 19.89,476.68 C 18.97,475.68 17.30,474.67 16.00,473.67 C 14.70,472.67 13.03,471.66 12.11,470.66 C 11.19,469.66 10.50,468.65 10.50,467.65 C 10.50,466.64 11.19,465.64 12.11,464.64 C 13.03,463.63 14.70,462.63 16.00,461.63 C 17.30,460.62 18.97,459.62 19.89,458.62 C 20.81,457.61 21.50,456.61 21.50,455.60 C 21.50,454.60 20.81,453.60 19.89,452.59 C 18.97,451.59 17.30,450.59 16.00,449.58 C 14.70,448.58 13.03,447.58 12.11,446.57 C 11.19,445.57 10.50,444.56 10.50,443.56 C 10.50,442.56 11.19,441.55 12.11,440.55 C 13.03,439.55 14.70,438.54 16.00,437.54 C 17.30,436.53 18.97,435.53 19.89,434.53 C 20.81,433.52 21.50,432.52 21.50,431.52 C 21.50,430.51 20.81,429.51 19.89,428.51 C 18.97,427.50 17.30,426.50 16.00,425.49 C 14.70,424.49 13.03,423.49 12.11,422.48 C 11.19,421.48 10.50,420.48 10.50,419.47 C 10.50,418.47 11.19,417.47 12.11,416.46 C 13.03,415.46 14.70,414.45 16.00,413.45 C 17.30,412.45 18.97,411.44 19.89,410.44 C 20.81,409.44 21.50,408.43 21.50,407.43 C 21.50,406.42 20.81,405.42 19.89,404.42 C 18.97,403.41 17.30,402.41 16.00,401.41 C 14.70,400.40 13.03,399.40 12.11,398.40 C 11.19,397.39 10.50,396.39 10.50,395.38 C 10.50,394.38 11.19,393.38 12.11,392.37 C 13.03,391.37 14.70,390.37 16.00,389.36 C 17.30,388.36 18.97,387.36 19.89,386.35 C 20.81,385.35 21.50,384.34 21.50,383.34 C 21.50,382.34 20.81,381.33 19.89,380.33 C 18.97,379.33 17.30,378.32 16.00,377.32 C 14.70,376.32 13.03,375.31 12.11,374.31 C 11.19,373.30 10.50,372.30 10.50,371.30 C 10.50,370.29 11.19,369.29 12.11,368.29 C 13.03,367.28 14.70,366.28 16.00,365.27 C 17.30,364.27 18.97,363.27 19.89,362.26 C 20.81,361.26 21.50,360.26 21.50,359.25 C 21.50,358.25 20.81,357.25 19.89,356.24 C 18.97,355.24 17.30,354.23 16.00,353.23 C 14.70,352.23 13.03,351.22 12.11,350.22 C 11.19,349.22 10.50,348.21 10.50,347.21 C 10.50,346.21 11.19,345.20 12.11,344.20 C 13.03,343.19 14.70,342.19 16.00,341.19 C 17.30,340.18 18.97,339.18 19.89,338.18 C 20.81,337.17 21.50,336.17 21.50,335.16 C 21.50,334.16 20.81,333.16 19.89,332.15 C 18.97,331.15 17.30,330.15 16.00,329.14 C 14.70,328.14 13.03,327.14 12.11,326.13 C 11.19,325.13 10.50,324.12 10.50,323.12 C 10.50,322.12 11.19,321.11 12.11,320.11 C 13.03,319.11 14.70,318.10 16.00,317.10 C 17.30,316.10 18.97,315.09 19.89,314.09 C 20.81,313.08 21.50,312.08 21.50,311.08 C 21.50,310.07 20.81,309.07 19.89,308.07 C 18.97,307.06 17.30,306.06 16.00,305.05 C 14.70,304.05 13.03,303.05 12.11,302.04 C 11.19,301.04 10.50,300.04 10.50,299.03 C 10.50,298.03 11.19,297.03 12.11,296.02 C 13.03,295.02 14.70,294.01 16.00,293.01 C 17.30,292.01 18.97,291.00 19.89,290.00 C 20.81,289.00 21.50,287.99 21.50,286.99 C 21.50,285.99 20.81,284.98 19.89,283.98 C 18.97,282.97 17.30,281.97 16.00,280.97 C 14.70,279.96 13.03,278.96 12.11,277.96 C 11.19,276.95 10.50,275.95 10.50,274.95 C 10.50,273.94 11.19,272.94 12.11,271.93 C 13.03,270.93 14.70,269.93 16.00,268.92 C 17.30,267.92 18.97,266.92 19.89,265.91 C 20.81,264.91 21.50,263.90 21.50,262.90 C 21.50,261.90 20.81,260.89 19.89,259.89 C 18.97,258.89 17.30,257.88 16.00,256.88 C 14.70,255.88 13.03,254.87 12.11,253.87 C 11.19,252.86 10.50,251.86 10.50,250.86 C 10.50,249.85 11.19,248.85 12.11,247.85 C 13.03,246.84 14.70,245.84 16.00,244.84 C 17.30,243.83 18.97,242.83 19.89,241.82 C 20.81,240.82 21.50,239.82 21.50,238.81 C 21.50,237.81 20.81,236.81 19.89,235.80 C 18.97,234.80 17.30,233.79 16.00,232.79 C 14.70,231.79 13.03,230.78 12.11,229.78 C 11.19,228.78 10.50,227.77 10.50,226.77 C 10.50,225.77 11.19,224.76 12.11,223.76 C 13.03,222.75 14.70,221.75 16.00,220.75 C 17.30,219.74 18.97,218.74 19.89,217.74 C 20.81,216.73 21.50,215.73 21.50,214.73 C 21.50,213.72 20.81,212.72 19.89,211.71 C 18.97,210.71 17.30,209.71 16.00,208.70 C 14.70,207.70 13.03,206.70 12.11,205.69 C 11.19,204.69 10.50,203.68 10.50,202.68 C 10.50,201.68 11.19,200.67 12.11,199.67 C 13.03,198.67 14.70,197.66 16.00,196.66 C 17.30,195.66 18.97,194.65 19.89,193.65 C 20.81,192.64 21.50,191.64 21.50,190.64 C 21.50,189.63 20.81,188.63 19.89,187.63 C 18.97,186.62 17.30,185.62 16.00,184.62 C 14.70,183.61 13.03,182.61 12.11,181.60 C 11.19,180.60 10.50,179.60 10.50,178.59 C 10.50,177.59 11.19,176.59 12.11,175.58 C 13.03,174.58 14.70,173.58 16.00,172.57 C 17.30,171.57 18.97,170.56 19.89,169.56 C 20.81,168.56 21.50,167.55 21.50,166.55 C 21.50,165.55 20.81,164.54 19.89,163.54 C 18.97,162.53 17.30,161.53 16.00,160.53 C 14.70,159.52 13.03,158.52 12.11,157.52 C 11.19,156.51 10.50,155.51 10.50,154.51 C 10.50,153.50 11.19,152.50 12.11,151.49 C 13.03,150.49 14.70,149.49 16.00,148.48 C 17.30,147.48 18.97,146.48 19.89,145.47 C 20.81,144.47 21.50,143.47 21.50,142.46 C 21.50,141.46 20.81,140.45 19.89,139.45 C 18.97,138.45 17.30,137.44 16.00,136.44 C 14.70,135.44 13.03,134.43 12.11,133.43 C 11.19,132.42 10.50,131.42 10.50,130.42 C 10.50,129.41 11.19,128.41 12.11,127.41 C 13.03,126.40 14.70,125.40 16.00,124.40 C 17.30,123.39 18.97,122.39 19.89,121.38 C 20.81,120.38 21.50,119.38 21.50,118.37 C 21.50,117.37 20.81,116.37 19.89,115.36 C 18.97,114.36 17.30,113.36 16.00,112.35 C 14.70,111.35 13.03,110.34 12.11,109.34 C 11.19,108.34 10.50,107.33 10.50,106.33 C 10.50,105.33 11.19,104.32 12.11,103.32 C 13.03,102.32 14.70,101.31 16.00,100.31 C 17.30,99.30 18.97,98.30 19.89,97.30 C 20.81,96.29 21.50,95.29 21.50,94.29 C 21.50,93.28 20.81,92.28 19.89,91.27 C 18.97,90.27 17.30,89.27 16.00,88.26 C 14.70,87.26 13.03,86.26 12.11,85.25 C 11.19,84.25 10.50,83.25 10.50,82.24 C 10.50,81.24 11.19,80.23 12.11,79.23 C 13.03,78.23 14.70,77.22 16.00,76.22 C 17.30,75.22 18.97,74.21 19.89,73.21 C 20.81,72.21 21.50,71.20 21.50,70.20 C 21.50,69.19 20.81,68.19 19.89,67.19 C 18.97,66.18 17.30,65.18 16.00,64.18 C 14.70,63.17 13.03,62.17 12.11,61.16 C 11.19,60.16 10.50,59.16 10.50,58.15 C 10.50,57.15 11.19,56.15 12.11,55.14 C 13.03,54.14 14.70,53.14 16.00,52.13 C 17.30,51.13 18.97,50.12 19.89,49.12 C 20.81,48.12 21.50,47.11 21.50,46.11 C 21.50,45.11 20.81,44.10 19.89,43.10 C 18.97,42.10 17.30,41.09 16.00,40.09 C 14.70,39.08 13.03,38.08 12.11,37.08 C 11.19,36.07 10.50,35.07 10.50,34.07 C 10.50,33.06 11.19,32.06 12.11,31.05 C 13.03,30.05 14.70,29.05 16.00,28.04 C 17.30,27.04 18.97,26.04 19.89,25.03 C 20.81,24.03 21.50,23.03 21.50,22.02 C 21.50,21.02 20.81,20.01 19.89,19.01 C 18.97,18.01 16.15,17.15 16.00,16.00 Z" fill="none" stroke="#9c8a55" stroke-width="2.2" stroke-linejoin="round" stroke-linecap="round"/>
</svg>